<svg xmlns="http://www.w3.org/2000/svg">
  <!-- ロゴ -->
  <symbol viewBox="0 0 78 78" id="svgCart">
    <path
      d="M77 39C77 18.0132 59.9868 1 39 1C18.0132 1 1 18.0132 1 39C1 59.9868 18.0132 77 39 77V78C17.4609 78 0 60.5391 0 39C0 17.4609 17.4609 0 39 0C60.5391 0 78 17.4609 78 39C78 60.5391 60.5391 78 39 78V77C59.9868 77 77 59.9868 77 39Z" />
    <path
      d="M56.5018 27.0406C56.083 26.5216 55.4564 26.2193 54.7942 26.2193H26.0453L25.0661 22.8078V22.8053C24.6167 21.2785 23.3826 20.1228 21.8472 19.7894L18.3335 19.026C17.7384 18.8967 17.1524 19.2813 17.0249 19.8852C16.8966 20.4882 17.2765 21.0836 17.8708 21.213L21.3861 21.9772C22.1336 22.1401 22.7353 22.7037 22.9546 23.4478L29.3769 45.8338C29.2328 45.9018 29.0921 45.9774 28.9572 46.0581C28.2661 46.4763 27.7107 47.0642 27.3365 47.7503C26.9806 48.4029 26.7919 49.1411 26.7745 49.9037H26.7712V50.0196H26.7745C26.7886 50.6142 26.9128 51.1861 27.1304 51.7077C27.4781 52.5408 28.0558 53.2454 28.785 53.7451C29.5118 54.244 30.3974 54.5371 31.3385 54.5363H51.9957C52.6041 54.5363 53.0974 54.0357 53.0974 53.4184C53.0974 52.8012 52.6041 52.2998 51.9957 52.2998H31.3385C31.0099 52.2998 30.7012 52.2334 30.4198 52.1125C29.9968 51.9311 29.6343 51.6262 29.3793 51.2424C29.1343 50.8746 28.9903 50.4395 28.9787 49.9633C28.9903 49.3948 29.1683 48.9026 29.482 48.5079C29.645 48.3038 29.8462 48.1258 30.0895 47.9779C30.3287 47.8326 30.6126 47.7176 30.9437 47.6454L51.7069 44.2154C53.0635 43.9912 54.142 42.9389 54.4168 41.5725L56.9562 28.9034V28.9017C56.986 28.7548 57.0009 28.6053 57.0009 28.4566C57.0009 27.9451 56.8279 27.4438 56.5035 27.0406H56.5018ZM52.2556 41.1257C52.1654 41.5817 51.8045 41.9327 51.3518 42.0075L31.5148 45.2837L26.6868 28.4558H54.7951L52.2556 41.1257Z" />
    <path
      d="M33.8881 56.3554C33.4031 56.0228 32.813 55.828 32.1864 55.828C31.7692 55.828 31.3669 55.9145 31.0027 56.0716C30.4556 56.3059 29.9929 56.6972 29.6643 57.1885C29.3366 57.679 29.1445 58.2778 29.1445 58.9144C29.1445 59.3377 29.2306 59.7467 29.3846 60.1162C29.6155 60.6714 30.0004 61.1409 30.4846 61.4734C30.9688 61.806 31.5581 62.0017 32.1855 62.0009C32.6027 62.0009 33.0066 61.9143 33.37 61.7573C33.9163 61.5221 34.379 61.1325 34.7068 60.6403C35.0354 60.1482 35.2282 59.5494 35.2266 58.9136C35.2266 58.4903 35.1421 58.0821 34.9874 57.7126C34.7556 57.1575 34.3715 56.688 33.8865 56.3554H33.8881ZM33.317 59.3982C33.2251 59.6199 33.0679 59.8114 32.8725 59.9458C32.6756 60.0801 32.4438 60.1574 32.1864 60.1582C32.015 60.1582 31.8561 60.123 31.7096 60.0608C31.4903 59.9676 31.3024 59.808 31.1691 59.609C31.0367 59.4091 30.9605 59.1748 30.9605 58.9136C30.9605 58.7397 30.9945 58.5785 31.0557 58.4298C31.1484 58.2073 31.3049 58.0158 31.501 57.8814C31.698 57.747 31.929 57.6698 32.1855 57.6689C32.3577 57.6689 32.5175 57.7042 32.6631 57.7664C32.8817 57.8604 33.0712 58.0192 33.2028 58.2182C33.3352 58.4181 33.4114 58.6516 33.4122 58.9127C33.4122 59.0874 33.3766 59.2487 33.3162 59.3973L33.317 59.3982Z" />
    <path
      d="M50.5698 56.3554C50.0847 56.0228 49.4946 55.828 48.868 55.828C48.4508 55.828 48.0486 55.9145 47.6836 56.0716C47.1364 56.3059 46.6737 56.6972 46.346 57.1885C46.0182 57.679 45.8262 58.2778 45.8262 58.9144C45.8262 59.3377 45.9114 59.7467 46.0654 60.1162C46.2971 60.6714 46.682 61.1409 47.1662 61.4734C47.6504 61.806 48.2406 62.0017 48.8672 62.0009C49.2844 62.0009 49.6874 61.9143 50.0516 61.7573C50.5988 61.5221 51.0606 61.1325 51.3884 60.6403C51.7162 60.1482 51.909 59.5494 51.9082 58.9136C51.9082 58.4903 51.8238 58.0821 51.669 57.7126C51.4372 57.1575 51.0532 56.688 50.5681 56.3554H50.5698ZM49.9978 59.3982C49.906 59.6199 49.7487 59.8114 49.5525 59.9458C49.3555 60.0801 49.1254 60.1574 48.868 60.1582C48.6967 60.1582 48.5378 60.123 48.3913 60.0608C48.1719 59.9676 47.9832 59.808 47.8499 59.609C47.7175 59.4091 47.6422 59.1748 47.6422 58.9136C47.6422 58.7397 47.6761 58.5785 47.7374 58.4298C47.8301 58.2073 47.9865 58.0158 48.1827 57.8814C48.3797 57.747 48.6098 57.6698 48.8672 57.6689C49.0385 57.6689 49.1983 57.7042 49.3448 57.7664C49.5633 57.8604 49.7528 58.0192 49.8853 58.2182C50.0177 58.4181 50.093 58.6516 50.0939 58.9127C50.093 59.0874 50.0591 59.2495 49.9978 59.3982Z" />
  </symbol>
</svg>