<?xml version="1.0" encoding="UTF-8"?>
<svg id="SvgjsSvg1001" xmlns="http://www.w3.org/2000/svg" version="1.1" viewBox="0 0 51.13 20.4">
  <!-- Generator: Adobe Illustrator 30.3.0, SVG Export Plug-In . SVG Version: 2.1.3 Build 182)  -->
  <defs>
    <style>
      .st0 {
        fill: #fff;
      }
    </style>
  </defs>
  <polygon class="st0" points="43.38 17.03 43.35 10.52 49.72 10.5 49.73 7.55 43.39 7.54 43.36 3.05 48.66 3.03 48.71 .09 40.38 .11 40.39 19.98 51.13 19.98 51.13 17.04 43.38 17.03"/>
  <path class="st0" d="M32.57,16.77c-3.01-1.34-4.82-4.64-4.06-8.13.66-3.06,3.52-5.57,6.96-5.6l3.98-.03-.02-2.92h-3.94c-4.47-.01-8.26,2.93-9.58,6.81-1.5,4.42.13,8.99,3.61,11.51,3.72,2.7,8.62,2.59,12.19-.15l-.09-4.14c-2.2,3.01-5.74,4.12-9.06,2.64Z"/>
  <path class="st0" d="M10.14,9.22l-3.66-2.27c-.79-.49-1.03-1.66-.73-2.52.31-.88,1.28-1.41,2.31-1.41h3.28s-.02-2.93-.02-2.93h-3.46c-2.34-.02-4.3,1.46-4.96,3.48-.75,2.3.12,4.74,2.18,6.01l3.49,2.15c1.12.69,1.74,1.74,1.58,2.97-.16,1.25-.98,2.31-2.33,2.61-2.25.5-4.33-.78-4.87-3l-2.95-.1v.74c.63,2.16,2.01,3.97,3.84,4.78,2.35,1.04,4.79.86,6.79-.46,1.76-1.16,2.51-3.11,2.5-5.09,0-2.04-1.14-3.8-2.99-4.95Z"/>
  <path class="st0" d="M19.42.03h-6.29s0,19.84,0,19.84l2.94.04.04-8.49c2.61,1.36,5.22,1.02,7.23-.74,1.85-1.61,2.58-4.3,1.57-6.86C24.11,1.8,21.98.03,19.42.03ZM19.54,9.27c-1.53.16-3.28-.98-3.39-2.74-.08-1.18-.06-2.27-.06-3.52l3.01-.04c1.9-.02,3.23,1.4,3.3,3.03.06,1.68-1.16,3.09-2.85,3.27Z"/>
  <g>
    <rect class="st0" x="23.86" y="2.94" width="3.01" height="16.98"/>
    <rect class="st0" x="23.86" width="3.01" height="2.94"/>
  </g>
</svg>